<?xml version="1.0" encoding="utf-8"?>
<!-- Generator: Adobe Illustrator 19.0.0, SVG Export Plug-In . SVG Version: 6.00 Build 0)  -->
<svg version="1.1" id="Layer_1" xmlns="http://www.w3.org/2000/svg" xmlns:xlink="http://www.w3.org/1999/xlink" x="0px" y="0px"
	 viewBox="337 396.2 168 50" style="enable-background:new 337 396.2 168 50;" xml:space="preserve">
<style type="text/css">
	.st0{fill:#2F87C8;stroke:#2F87C8;stroke-miterlimit:10;}
	.st1{fill:#515251;}
	.st2{fill:#71C0E6;}
	.st3{fill:#2F87C8;}
	.st4{fill:#FFFFFF;}
</style>
<g>
	<g id="XMLID_17_">
		<path id="XMLID_16_" class="st0" d="M400.6,409.4h-5.3v1.7h5.3c0.2,0,0.4-0.1,0.5-0.3c0.1-0.2,0.2-0.4,0.2-0.6
			c0-0.2-0.1-0.4-0.2-0.5C401,409.5,400.8,409.4,400.6,409.4z"/>
		<path id="XMLID_15_" class="st0" d="M400.6,432.9h-11.3v-10.1h5.5c0.2,0,0.4-0.1,0.6-0.2c0.1-0.2,0.2-0.3,0.2-0.5
			c0-0.2-0.1-0.4-0.2-0.6c-0.1-0.2-0.3-0.2-0.5-0.2h-5.5V411h4.4v-1.7h-5.3c-0.2,0-0.4,0.1-0.6,0.2s-0.3,0.3-0.3,0.6v23.6
			c0,0.2,0.1,0.4,0.3,0.6s0.4,0.2,0.6,0.2h12.2c0.2,0,0.4-0.1,0.6-0.3s0.2-0.4,0.2-0.5c0-0.2-0.1-0.4-0.2-0.6
			C401,433,400.8,432.9,400.6,432.9z"/>
		<path id="XMLID_14_" class="st1" d="M409.9,426.3l4.7-7.1c0.1-0.1,0.1-0.2,0.1-0.4c0-0.2-0.1-0.5-0.3-0.6
			c-0.2-0.2-0.4-0.2-0.7-0.2c-0.2,0-0.4,0.1-0.6,0.3l-4.3,6.6l-4.3-6.6c-0.1-0.1-0.2-0.2-0.3-0.2c-0.1,0-0.2,0-0.3,0
			c-0.2,0-0.5,0.1-0.7,0.3c-0.2,0.2-0.3,0.4-0.3,0.6c0,0.1,0,0.2,0.1,0.4l4.6,7l-4.7,7.2c-0.1,0.1-0.1,0.3-0.1,0.4
			c0,0.2,0.1,0.4,0.3,0.6c0.2,0.2,0.4,0.2,0.7,0.2c0.2,0,0.4-0.1,0.6-0.3l4.3-6.7l4.4,6.7c0.1,0.2,0.3,0.3,0.6,0.3
			c0.2,0,0.4-0.1,0.7-0.3c0.2-0.2,0.3-0.4,0.3-0.6c0-0.1,0-0.2-0.1-0.4L409.9,426.3z"/>
		<path class="st1" d="M428.5,419.9c-0.6-0.6-1.2-1-2-1.3c-0.8-0.3-1.5-0.5-2.4-0.5c-1.2,0-2.1,0.3-2.9,0.8
			c-0.8,0.5-1.3,1.1-1.7,1.8V419c0-0.2-0.1-0.4-0.2-0.5c-0.2-0.1-0.4-0.2-0.6-0.2c-0.2,0-0.5,0.1-0.6,0.2c-0.2,0.1-0.2,0.3-0.2,0.5
			v22.8c0,0.2,0.1,0.4,0.2,0.5s0.4,0.2,0.6,0.2c0.2,0,0.5-0.1,0.6-0.2s0.2-0.3,0.2-0.5v-9.7c0.4,0.7,1,1.3,1.8,1.8
			c0.8,0.5,1.8,0.8,2.8,0.8c0.8,0,1.6-0.2,2.3-0.5c0.7-0.4,1.4-0.8,1.9-1.4c0.6-0.6,1-1.3,1.3-2s0.5-1.6,0.5-2.4v-4
			c0-0.9-0.2-1.7-0.5-2.5C429.5,421.1,429.1,420.5,428.5,419.9z M428.7,428.4c0,0.6-0.1,1.2-0.4,1.8c-0.2,0.6-0.6,1.1-1,1.5
			c-0.4,0.4-0.9,0.8-1.4,1.1s-1.1,0.4-1.7,0.4c-0.6,0-1.2-0.1-1.8-0.4c-0.6-0.3-1-0.6-1.4-1s-0.7-0.8-1-1.2c-0.2-0.4-0.4-0.8-0.4-1
			v-5.2c0-0.7,0.1-1.4,0.4-2c0.2-0.6,0.6-1.1,1-1.5c0.4-0.4,0.9-0.7,1.4-0.9c0.5-0.2,1.1-0.3,1.6-0.3c0.6,0,1.2,0.1,1.8,0.4
			c0.6,0.3,1.1,0.6,1.5,1.1s0.8,1,1,1.5s0.4,1.1,0.4,1.7V428.4L428.7,428.4z"/>
		<path class="st1" d="M444.3,419.8c-0.6-0.6-1.2-1-2-1.3c-0.8-0.3-1.5-0.5-2.4-0.5c-0.9,0-1.7,0.2-2.5,0.5s-1.4,0.8-2,1.3
			c-0.6,0.6-1,1.2-1.3,2s-0.5,1.5-0.5,2.4v4.1c0,1,0.2,1.8,0.5,2.6c0.4,0.8,0.8,1.4,1.5,2c0.6,0.6,1.4,1,2.3,1.3
			c0.9,0.3,1.8,0.5,2.9,0.5c0.8,0,1.4-0.1,2.1-0.2c0.6-0.2,1.1-0.3,1.6-0.6s0.8-0.4,1-0.7c0.2-0.2,0.4-0.4,0.4-0.6
			c0-0.2-0.1-0.4-0.2-0.6c-0.2-0.2-0.4-0.3-0.6-0.3c-0.2,0-0.4,0.1-0.6,0.2c-0.2,0.2-0.4,0.3-0.7,0.5c-0.3,0.2-0.7,0.3-1.1,0.5
			c-0.4,0.1-1,0.2-1.7,0.2c-0.8,0-1.5-0.1-2.2-0.3c-0.7-0.2-1.3-0.5-1.7-1s-0.9-0.9-1.1-1.5c-0.3-0.6-0.4-1.3-0.4-2V427h8
			c0.4,0,0.7,0,1.1,0c0.4,0,0.7-0.1,1-0.3c0.3-0.2,0.5-0.4,0.7-0.8c0.2-0.4,0.2-0.9,0.2-1.5c0-0.9-0.2-1.7-0.5-2.5
			C445.3,421.1,444.9,420.4,444.3,419.8z M444.2,425.3c-0.2,0.2-0.8,0.2-1.5,0.2h-7.3v-1.4c0-0.6,0.1-1.2,0.4-1.7
			c0.2-0.6,0.6-1,1-1.4c0.4-0.4,0.9-0.7,1.5-1s1.2-0.4,1.8-0.4c0.7,0,1.3,0.1,1.9,0.4c0.6,0.3,1,0.6,1.5,1.1c0.4,0.4,0.7,0.9,1,1.5
			c0.2,0.6,0.3,1.1,0.3,1.7C444.5,424.8,444.4,425.2,444.2,425.3z"/>
		<path id="XMLID_9_" class="st1" d="M460.3,419.9c-0.6-0.6-1.2-1-2-1.3c-0.8-0.3-1.5-0.5-2.3-0.5c-1.2,0-2.1,0.3-2.9,0.8
			c-0.8,0.5-1.3,1.1-1.7,1.8V419c0-0.2-0.1-0.4-0.2-0.5c-0.2-0.1-0.4-0.2-0.6-0.2c-0.2,0-0.4,0.1-0.6,0.2c-0.2,0.1-0.2,0.3-0.2,0.5
			v14.8c0,0.2,0.1,0.4,0.2,0.5s0.4,0.2,0.6,0.2c0.2,0,0.5-0.1,0.6-0.2c0.2-0.2,0.2-0.3,0.2-0.5v-9.4c0-0.7,0.1-1.4,0.4-2
			c0.2-0.6,0.6-1.1,1-1.5c0.4-0.4,0.9-0.7,1.4-0.9c0.5-0.2,1.1-0.3,1.6-0.3c0.6,0,1.2,0.1,1.8,0.4s1.1,0.6,1.5,1.1
			c0.4,0.4,0.8,1,1,1.5c0.2,0.6,0.4,1.1,0.4,1.7v9.4c0,0.2,0.1,0.4,0.3,0.6c0.2,0.1,0.4,0.2,0.6,0.2c0.2,0,0.4-0.1,0.6-0.2
			c0.2-0.1,0.3-0.3,0.3-0.6v-9.4c0-0.9-0.2-1.7-0.5-2.5C461.3,421.1,460.9,420.5,460.3,419.9z"/>
		<path id="XMLID_8_" class="st1" d="M473.8,426.6c-0.6-0.4-1.3-0.6-2.1-0.8c-0.7-0.2-1.4-0.4-2.1-0.6c-0.6-0.2-1.2-0.5-1.6-0.9
			c-0.4-0.4-0.6-0.9-0.6-1.6c0-0.3,0.1-0.7,0.2-1c0.1-0.4,0.3-0.7,0.6-1c0.3-0.3,0.7-0.5,1.1-0.7c0.5-0.2,1-0.3,1.7-0.3
			c0.5,0,1,0,1.3,0.1c0.4,0.1,0.8,0.2,1,0.3c0.3,0.1,0.5,0.2,0.7,0.3c0.2,0.1,0.4,0.1,0.5,0.1c0.2,0,0.4-0.1,0.5-0.3
			c0.2-0.2,0.2-0.4,0.2-0.6c0-0.2-0.1-0.4-0.4-0.6c-0.3-0.2-0.6-0.4-1-0.5c-0.4-0.2-0.9-0.3-1.4-0.4c-0.5-0.1-1.1-0.1-1.6-0.1
			c-1,0-1.7,0.1-2.4,0.4c-0.7,0.3-1.2,0.6-1.6,1.1c-0.4,0.4-0.7,0.9-0.9,1.5c-0.2,0.5-0.3,1.1-0.3,1.6c0,1,0.2,1.7,0.6,2.2
			c0.4,0.5,1,1,1.6,1.3c0.6,0.3,1.3,0.6,2.1,0.8c0.8,0.2,1.4,0.4,2.1,0.7c0.6,0.3,1.1,0.6,1.6,1.1c0.4,0.5,0.6,1.1,0.6,1.9
			c0,0.7-0.3,1.3-0.9,1.9c-0.6,0.5-1.5,0.8-2.9,0.8c-0.8,0-1.5-0.1-2-0.3s-0.9-0.4-1.2-0.6c-0.3-0.2-0.6-0.4-0.8-0.6
			c-0.2-0.2-0.4-0.3-0.6-0.3s-0.3,0.1-0.4,0.3c-0.1,0.2-0.2,0.4-0.2,0.5c0,0.2,0.1,0.5,0.4,0.8c0.2,0.3,0.6,0.5,1,0.8
			c0.5,0.2,1,0.4,1.6,0.6c0.6,0.2,1.3,0.2,2.1,0.2c1.7,0,3-0.4,4-1.1s1.4-1.8,1.4-3.1c0-1.1-0.2-1.9-0.6-2.5
			C474.9,427.4,474.4,426.9,473.8,426.6z"/>
		<path id="XMLID_7_" class="st1" d="M490.3,418.3c-0.2-0.2-0.4-0.2-0.6-0.2c-0.3,0-0.5,0.2-0.7,0.4l-4.7,13.2l-4.8-13.2
			c0-0.1-0.1-0.2-0.3-0.3c-0.1-0.1-0.3-0.1-0.4-0.1c-0.2,0-0.5,0.1-0.7,0.2c-0.2,0.2-0.3,0.4-0.3,0.6c0,0,0,0.1,0.1,0.3l5.6,14.8
			c-0.2,0.8-0.6,1.7-0.9,2.5c-0.4,0.8-0.7,1.6-1.1,2.3c-0.4,0.7-0.9,1.2-1.3,1.6c-0.5,0.4-1,0.6-1.6,0.6c-0.2,0-0.4,0.1-0.5,0.2
			c-0.1,0.2-0.1,0.4-0.1,0.6c0,0.3,0.1,0.5,0.2,0.6c0.2,0.1,0.4,0.2,0.6,0.2c0.8,0,1.6-0.3,2.3-0.8c0.7-0.6,1.3-1.3,1.8-2.1
			c0.5-0.9,1-1.8,1.4-2.8c0.4-1,0.8-2,1.1-2.9l5.4-14.8c0-0.1,0-0.2,0-0.3C490.6,418.6,490.5,418.4,490.3,418.3z"/>
		<path class="st1" d="M503.6,422.2c-0.2-0.8-0.6-1.5-1-2.1c-0.5-0.6-1.1-1.1-1.8-1.5c-0.8-0.4-1.7-0.6-2.8-0.6
			c-0.5,0-1.1,0-1.6,0.1c-0.5,0.1-1,0.2-1.4,0.4c-0.4,0.2-0.8,0.3-1,0.5c-0.3,0.2-0.4,0.4-0.4,0.6c0,0.2,0.1,0.4,0.2,0.6
			c0.1,0.2,0.3,0.3,0.6,0.3c0.1,0,0.3,0,0.4-0.2c0.2-0.1,0.4-0.2,0.7-0.3c0.3-0.1,0.6-0.2,1-0.3c0.4-0.1,0.9-0.2,1.4-0.2
			c0.8,0,1.4,0.2,2,0.4c0.6,0.3,1,0.7,1.3,1.2c0.4,0.5,0.6,1,0.8,1.6c0.2,0.6,0.2,1.2,0.2,1.8v0.9h-1.9c-1.2,0-2.3,0.1-3.3,0.2
			c-1,0.1-1.8,0.4-2.5,0.7c-0.7,0.4-1.2,0.8-1.6,1.4s-0.6,1.3-0.6,2.3c0,0.8,0.1,1.5,0.4,2c0.2,0.6,0.6,1,1,1.4s0.9,0.7,1.5,0.8
			c0.6,0.2,1.2,0.3,1.9,0.3c1.1,0,2.1-0.3,3-0.8c0.8-0.5,1.6-1.1,2.2-1.8v1.7c0,0.2,0.1,0.4,0.2,0.5s0.4,0.2,0.6,0.2
			c0.2,0,0.4-0.1,0.6-0.2s0.2-0.3,0.2-0.5v-9.1C503.9,423.8,503.8,423,503.6,422.2z M502.2,429.5c0,0.4-0.2,0.8-0.4,1.2
			c-0.3,0.4-0.7,0.8-1.1,1.2c-0.5,0.4-1,0.7-1.6,0.9c-0.6,0.2-1.2,0.4-1.8,0.4c-0.9,0-1.7-0.2-2.3-0.7c-0.6-0.5-1-1.3-1-2.3
			c0-0.7,0.2-1.3,0.5-1.7c0.4-0.4,0.8-0.8,1.4-1c0.6-0.2,1.3-0.4,2.1-0.4s1.6-0.1,2.4-0.1h1.7V429.5L502.2,429.5z"/>
	</g>
	<g id="XMLID_18_">
		<path id="XMLID_4_" class="st2" d="M351.7,446.1L339,418.8c-1.7-3.6-0.1-7.8,3.4-9.5l27.3-12.7c0,0,0,0,0,0l12.7,27.3
			c1.7,3.6,0.1,7.8-3.4,9.5"/>
		<path id="XMLID_3_" class="st3" d="M341.6,440.5v-30.1c0-3.9,3.2-7.1,7.1-7.1h30.1c0,0,0,0,0,0v30.1c0,3.9-3.2,7.1-7.1,7.1"/>
		<g>
			<path id="XMLID_2_" class="st4" d="M366.5,432.5h-11.1v-9.7h5.5c0.6,0,0.9-0.3,0.9-1c0-0.3-0.1-0.6-0.2-0.8
				c-0.2-0.2-0.4-0.3-0.6-0.3h-5.5v-9.6h3.7v-2.1h-5c-0.3,0-0.5,0.1-0.7,0.2c-0.2,0.2-0.3,0.4-0.3,0.6v23.7c0,0.3,0.1,0.5,0.3,0.7
				c0.2,0.2,0.5,0.2,0.7,0.2h12.4c0.6,0,0.9-0.4,0.9-1c0-0.3-0.1-0.6-0.2-0.8C366.9,432.6,366.7,432.5,366.5,432.5z"/>
			<path id="XMLID_1_" class="st4" d="M366.5,411.3c0.3,0,0.5-0.1,0.6-0.3s0.2-0.5,0.2-0.8c0-0.7-0.3-1-0.9-1h-5v2.1H366.5z"/>
		</g>
	</g>
</g>
</svg>
